<svg width="46px" height="30px" viewBox="0 0 46 30" version="1.1" xmlns="http://www.w3.org/2000/svg" xmlns:xlink="http://www.w3.org/1999/xlink">
                        <g id="Page-1" stroke="none" stroke-width="1" fill="none" fill-rule="evenodd">
                            <g id="logo" fill="#0028ff">
                                <path d="M39.5752,14.4492 C42.9036,13.3956 44.5672,11.1076 44.5672,7.5856 C44.5672,5.2004 43.742,3.4044 42.092,2.1984 C40.4416,0.9916 38.2164,0.3888 35.4156,0.3888 L33.728,0.3888 L31.0476,0.3888 L21.6644,0.3888 L21.6044,0.3888 L21.6044,0.5504 L16.5196,14.242 L10.9732,0.3892 L0.2404,0.3892 L0.2404,4.0496 L3.3604,5.2976 L3.3604,25.0576 L0.2404,26.0976 L0.2404,29.7168 L12.096,29.7168 L12.096,26.0976 L8.8932,25.0576 L8.8932,9.9984 L9.6,12.1616 L16.612,29.7168 C16.612,29.7168 22.3228,14.748 22.9744,13.3472 C23.6256,11.9472 24.2016,10.5948 24.7008,9.2916 L24.7008,25.0576 L21.456,26.0976 L21.456,29.7168 L21.6044,29.7168 L33.8532,29.7168 L34.708,29.7168 C41.9188,29.7168 45.5244,26.8464 45.5244,21.1064 C45.5244,17.806 43.5408,15.5868 39.5752,14.4492 L39.5752,14.4492 Z M34.5836,5.2972 C35.6372,5.2972 36.49,5.5676 37.142,6.1088 C37.7932,6.6492 38.1196,7.4468 38.1196,8.5004 C38.1196,11.0796 36.5656,12.3696 33.4604,12.3696 L31.048,12.3696 L31.048,5.2972 L34.5836,5.2972 L34.5836,5.2972 Z M37.8076,23.8512 C37.0444,24.5164 35.942,24.8492 34.5,24.8492 L31.0476,24.8492 L31.0476,16.7372 L33.46,16.7372 C35.346,16.7372 36.732,17.0916 37.62,17.798 C38.5072,18.506 38.9504,19.608 38.9504,21.106 C38.9508,22.27 38.57,23.1856 37.8076,23.8512 L37.8076,23.8512 Z" id="Shape"></path>
                            </g>
                        </g>
                    </svg>