<?xml version="1.0" standalone="no"?>
<!DOCTYPE svg PUBLIC "-//W3C//DTD SVG 20010904//EN"
 "http://www.w3.org/TR/2001/REC-SVG-20010904/DTD/svg10.dtd">
<svg version="1.0" xmlns="http://www.w3.org/2000/svg"
 width="400.000000pt" height="400.000000pt" viewBox="0 0 400.000000 400.000000"
 preserveAspectRatio="xMidYMid meet">
<metadata>
Created by potrace 1.11, written by Peter Selinger 2001-2013
</metadata>
<g transform="translate(0.000000,400.000000) scale(0.100000,-0.100000)"
fill="#000000" stroke="none">
<path d="M24 3255 c-3 -6 -3 -78 -2 -160 l3 -149 127 -51 c70 -28 129 -53 133
-56 7 -8 8 -1709 1 -1716 -3 -3 -45 -19 -93 -34 -49 -16 -107 -36 -131 -45
l-42 -16 2 -156 3 -156 510 0 510 -1 0 159 0 159 -136 44 -135 43 -1 645 c0
355 3 642 7 638 4 -4 15 -35 25 -68 14 -49 393 -1011 440 -1120 7 -16 48 -118
90 -225 42 -107 84 -212 94 -233 l17 -37 164 427 c208 543 280 728 306 790 8
17 14 34 14 37 0 6 75 183 113 266 14 30 42 96 62 145 21 50 39 92 41 94 2 2
4 -302 3 -677 l-1 -681 -131 -42 c-73 -22 -137 -47 -142 -53 -11 -14 -13 -284
-3 -301 7 -11 1206 -12 1328 -1 480 45 738 280 755 691 13 299 -129 492 -444
606 -59 21 -62 24 -40 32 239 96 359 236 395 462 24 152 -5 336 -71 445 -91
149 -288 261 -525 296 -25 3 -347 7 -716 9 l-670 2 -104 -281 c-56 -155 -111
-301 -121 -326 -10 -25 -61 -162 -114 -305 -53 -143 -100 -266 -104 -273 -4
-7 -107 236 -247 585 l-240 598 -463 1 c-328 0 -464 -3 -467 -11z m3136 -447
c107 -51 151 -121 152 -244 1 -146 -52 -239 -165 -293 -78 -36 -127 -44 -304
-46 l-143 -1 0 309 0 309 203 -4 c193 -3 204 -5 257 -30z m-115 -972 c217 -31
326 -137 339 -329 8 -119 -19 -202 -88 -270 -79 -78 -161 -97 -411 -97 l-185
0 0 348 c0 192 2 351 5 354 7 7 282 2 340 -6z"/>
</g>
</svg>
