<?xml version="1.0" encoding="UTF-8"?>
<svg width="800px" height="800px" viewBox="0 0 800 800" version="1.1" xmlns="http://www.w3.org/2000/svg" xmlns:xlink="http://www.w3.org/1999/xlink" xmlns:sketch="http://www.bohemiancoding.com/sketch/ns">
    <!-- Generator: Sketch 3.4.2 (15857) - http://www.bohemiancoding.com/sketch -->
    <title>MEAN stack</title>
    <desc>Created with Sketch.</desc>
    <defs></defs>
    <g id="Page-1" stroke="none" stroke-width="1" fill="none" fill-rule="evenodd" sketch:type="MSPage">
        <g id="MEAN-stack" sketch:type="MSArtboardGroup">
            <rect id="Rectangle-1" stroke="#0028FF" stroke-width="4" sketch:type="MSShapeGroup" x="100" y="2" width="600" height="100"></rect>
            <text id="Client" sketch:type="MSTextLayer" font-family="Helvetica Neue" font-size="24" font-weight="bold" fill="#0028FF">
                <tspan x="367" y="59">Client</tspan>
            </text>
            <rect id="Rectangle-1" stroke="#0028FF" stroke-width="4" sketch:type="MSShapeGroup" x="100" y="698" width="600" height="100"></rect>
            <g id="mongo-logo-+-text" sketch:type="MSLayerGroup" transform="translate(319.000000, 710.000000)">
                <text id="Database" sketch:type="MSTextLayer" font-family="Helvetica Neue" font-size="24" font-weight="bold" fill="#0028FF">
                    <tspan x="54" y="49">Database</tspan>
                </text>
                <g id="mongodb-original" sketch:type="MSShapeGroup">
                    <g id="Group">
                        <path d="M34.0351807,26.1062295 C35.0849225,29.1508197 35.8409983,32.2590164 36.0895353,35.4806557 C36.3982444,39.477377 36.2569707,43.4459016 35.4165232,47.3770492 C35.3936317,47.4852459 35.3452324,47.5868852 35.3092599,47.6918033 C35.0456799,47.692459 34.7768675,47.6596721 34.5191738,47.6996721 C32.3418589,48.042623 30.166506,48.3980328 27.9911532,48.7514754 C25.7425473,49.1167213 23.4906713,49.467541 21.2459897,49.8577049 C20.4506713,49.9954098 19.4663339,49.8308197 19.1451979,50.9337705 C19.1360413,50.9639344 19.044475,50.9691803 18.9914974,50.9862295 L19.1000688,44.3954098 C19.0627883,39.0944262 19.0261618,33.7934426 18.9895353,28.492459 L20.037315,28.3121311 C21.7509122,28.0308197 23.4645095,27.7455738 25.1794148,27.4721311 C27.2259208,27.1462295 29.274389,26.8295082 31.3222031,26.5114754 C32.2254389,26.3704918 33.1299828,26.2413115 34.0351807,26.1062295 L34.0351807,26.1062295 Z" id="Shape" fill="#439934"></path>
                        <path d="M16.8279174,70.1993443 C15.7225818,69.2465574 14.5786575,68.3357377 13.519105,67.3337705 C7.8177969,61.9422951 3.64760757,55.5967213 1.59390706,47.9462295 C1.02815835,45.8406557 0.650774527,43.7009836 0.529776248,41.5252459 C0.44475043,40.002623 0.321790017,38.4662295 0.429053356,36.9514754 C0.714870912,32.922623 1.29566265,28.932459 2.47425129,25.0518033 L2.53900172,24.9613115 C2.65345955,25.1140984 2.81827883,25.2491803 2.87648881,25.4216393 C4.02695353,28.8183607 5.16891566,32.2177049 6.30499139,35.6190164 C9.87476764,46.307541 13.4399656,56.9986885 17.0156282,67.6845902 C17.085611,67.8931148 17.2667814,68.0642623 17.3969363,68.252459 L16.8279174,70.1993443 L16.8279174,70.1993443 Z" id="Shape" fill="#45A538"></path>
                        <path d="M34.0351807,26.1062295 C33.1299828,26.2413115 32.2247849,26.3704918 31.3215491,26.5101639 C29.2737349,26.8281967 27.2252668,27.144918 25.1787608,27.4708197 C23.4638554,27.7442623 21.7502582,28.0295082 20.0366609,28.3108197 L18.9888812,28.4911475 L18.9810327,27.8059016 C18.9463683,27.242623 18.8868503,26.68 18.8803098,26.1167213 C18.8351807,22.5245902 18.8070568,18.932459 18.7625818,15.3403279 C18.7351119,13.0918033 18.6939071,10.8439344 18.6481239,8.59606557 C18.62,7.19934426 18.5899139,5.80196721 18.5271256,4.40721311 C18.4931153,3.65770492 18.3727711,2.91213115 18.3237177,2.16262295 C18.2962478,1.73180328 18.3341824,1.29770492 18.342685,0.864918033 C18.8770396,1.90295082 19.3996213,2.94885246 19.9490189,3.97901639 C20.8169363,5.60786885 22.1995869,6.80786885 23.4442341,8.11737705 C28.3646127,13.292459 31.8578657,19.3095082 34.0351807,26.1062295 L34.0351807,26.1062295 Z" id="Shape" fill="#46A037"></path>
                        <path d="M18.9908434,50.9855738 C19.043821,50.9685246 19.1360413,50.9632787 19.1445439,50.9331148 C19.4656799,49.8301639 20.4500172,49.9947541 21.2453356,49.8570492 C23.4900172,49.467541 25.7418933,49.1160656 27.9904991,48.7508197 C30.165852,48.397377 32.3412048,48.0419672 34.5185198,47.6990164 C34.7762134,47.6583607 35.0450258,47.6918033 35.3086059,47.6911475 C34.90179,49.1468852 34.5813081,50.6340984 34.0652668,52.0498361 C33.4792427,53.6557377 32.7702582,55.2229508 32.0174527,56.7593443 C30.8924957,59.0563934 29.4908778,61.1986885 27.8623064,63.1613115 C26.6071945,64.6747541 25.2081928,66.0734426 23.8059208,67.455082 C23.0308778,68.2190164 22.1171773,68.8413115 21.2669191,69.5278689 L21.046506,69.3770492 L20.2524957,68.6963934 L19.4310155,66.8911475 C18.8652668,64.7777049 18.5683305,62.6262295 18.5192771,60.44 L18.5343201,60.0721311 L18.6461618,58.4813115 C18.6834423,57.9383607 18.7331497,57.3960656 18.7560413,56.8518033 C18.8404131,54.8963934 18.9136661,52.9409836 18.9908434,50.9855738 L18.9908434,50.9855738 Z" id="Shape" fill="#409433"></path>
                        <path d="M18.9908434,50.9855738 C18.9136661,52.9409836 18.8404131,54.8963934 18.7573494,56.852459 C18.7344578,57.3967213 18.6847504,57.9390164 18.6474699,58.4819672 L18.1471256,58.6714754 C17.0359036,55.3914754 15.9240275,52.1462295 14.8363511,48.892459 C13.0377281,43.5095082 11.2606885,38.1180328 9.46468158,32.7337705 C8.01466437,28.387541 6.55287435,24.0459016 5.08258176,19.7062295 C5.01390706,19.5029508 4.81638554,19.3442623 4.67903614,19.1645902 L7.88123924,13.2616393 C7.99111876,13.4531148 8.1363167,13.6321311 8.20564544,13.8380328 C9.6870568,18.2334426 11.165852,22.6295082 12.6322203,27.0301639 C14.5394148,32.7547541 16.4348365,38.4839344 18.3407229,44.2091803 C18.4165921,44.4380328 18.5421687,44.6491803 18.6618589,44.9055738 L19.1000688,44.3940984 C19.0634423,46.5914754 19.0268158,48.7881967 18.9908434,50.9855738 L18.9908434,50.9855738 Z" id="Shape" fill="#4FAA41"></path>
                        <path d="M4.67969019,19.1652459 C4.81703959,19.344918 5.01390706,19.5036066 5.0832358,19.7068852 C6.5535284,24.0465574 8.01531842,28.3881967 9.46533563,32.7344262 C11.2613425,38.1186885 13.0383821,43.5101639 14.8370052,48.8931148 C15.9240275,52.1462295 17.0359036,55.3921311 18.1477797,58.6721311 L18.6481239,58.482623 L18.5362823,60.0734426 L18.4349053,60.44 C18.2609294,62.1816393 18.1144234,63.9272131 17.9025129,65.664918 C17.7959036,66.5357377 17.5696041,67.3908197 17.3975904,68.2531148 C17.2680895,68.064918 17.0862651,67.8937705 17.0162823,67.6852459 C13.4406196,56.9986885 9.87542169,46.3081967 6.30564544,35.6196721 C5.16956971,32.2183607 4.02760757,28.8190164 2.87714286,25.4222951 C2.81893287,25.2498361 2.65476764,25.1147541 2.53965577,24.9619672 C3.25256454,23.0295082 3.96612737,21.0970492 4.67969019,19.1652459 L4.67969019,19.1652459 Z" id="Shape" fill="#4AA73C"></path>
                        <path d="M19.0994148,44.3947541 L18.6612048,44.9062295 C18.5415146,44.6498361 18.415938,44.4380328 18.3400688,44.2098361 C16.4348365,38.4845902 14.5387608,32.7554098 12.6315663,27.0308197 C11.1651979,22.6301639 9.68640275,18.2340984 8.20499139,13.8386885 C8.1363167,13.6327869 7.99111876,13.4531148 7.8805852,13.2622951 L11.8408262,8.03934426 C11.9657487,8.20655738 12.1436489,8.35540984 12.2083993,8.54360656 C13.3078485,11.7704918 14.3974871,15.0013115 15.4805852,18.2340984 C16.4923924,21.2531148 17.4891566,24.2767213 18.5127367,27.2918033 C18.5814114,27.4937705 18.8201377,27.6367213 18.9797246,27.8072131 L18.9875731,28.492459 C19.0255077,33.7921311 19.0627883,39.0937705 19.0994148,44.3947541 L19.0994148,44.3947541 Z" id="Shape" fill="#57AE47"></path>
                        <path d="M18.9810327,27.8059016 C18.8214458,27.6354098 18.5827194,27.492459 18.5140448,27.2904918 C17.4904647,24.2754098 16.4937005,21.2518033 15.4818933,18.2327869 C14.3987952,15 13.3091566,11.7698361 12.2097074,8.54229508 C12.144957,8.35409836 11.9670568,8.2052459 11.8421343,8.03803279 C13.1299484,6.77377049 14.3778657,5.4642623 15.7173494,4.25836066 C16.9083649,3.18688525 17.8658864,2.03803279 17.9097074,0.344918033 C17.9116695,0.274754098 17.948296,0.204590164 18.0045439,0.00786885246 L18.3439931,0.864262295 C18.3354905,1.29770492 18.2969019,1.73114754 18.3250258,2.16196721 C18.3740792,2.91147541 18.4944234,3.65704918 18.5284337,4.40655738 C18.591222,5.80131148 18.6213081,7.19868852 18.649432,8.59540984 C18.6945611,10.8432787 18.7357659,13.0911475 18.7638898,15.3396721 C18.8077108,18.9318033 18.8364888,22.5239344 18.8816179,26.1160656 C18.8868503,26.6806557 18.9457143,27.242623 18.9810327,27.8059016 L18.9810327,27.8059016 Z" id="Shape" fill="#60B24F"></path>
                        <path d="M17.3962823,68.252459 C17.568296,67.3901639 17.7945955,66.5344262 17.9012048,65.6642623 C18.1137694,63.9272131 18.2596213,62.1809836 18.4335972,60.4393443 L18.4767642,60.4327869 L18.5199312,60.44 C18.5689845,62.6262295 18.8659208,64.7777049 19.4316695,66.8911475 C19.3165577,67.0432787 19.1537005,67.1790164 19.0928744,67.3508197 C18.6173838,68.695082 18.1693632,70.0498361 17.6912565,71.3940984 C17.625852,71.5777049 17.4440275,71.7206557 17.3158348,71.8819672 L16.8272633,70.1993443 L17.3962823,68.252459 L17.3962823,68.252459 Z" id="Shape" fill="#A9AA88"></path>
                        <path d="M17.3164888,71.882623 C17.4446816,71.7213115 17.6271601,71.5783607 17.6919105,71.3947541 C18.1700172,70.0504918 18.6186919,68.6963934 19.0935284,67.3514754 C19.1543546,67.1796721 19.3165577,67.0439344 19.4323236,66.8918033 L20.2531497,68.6977049 C20.0909466,68.9285246 19.8672633,69.1363934 19.7770052,69.3934426 L18.2046816,74.0222951 C18.1399312,74.2078689 17.918864,74.3390164 17.7710499,74.4957377 L17.3164888,71.882623 L17.3164888,71.882623 Z" id="Shape" fill="#B6B598"></path>
                        <path d="M17.7710499,74.495082 C17.9195181,74.3390164 18.1399312,74.2072131 18.2046816,74.0216393 L19.7770052,69.3927869 C19.8666093,69.1363934 20.0909466,68.9278689 20.2531497,68.6970492 L21.0478141,69.3770492 C20.6638898,69.757377 20.4506713,70.1967213 20.578864,70.7521311 L20.3375215,71.5442623 C20.227642,71.68 20.0687091,71.7980328 20.0144234,71.9534426 C19.4656799,73.5291803 18.94179,75.1134426 18.3891222,76.6891803 C18.3191394,76.8891803 18.1248881,77.0459016 17.9875387,77.2216393 C17.9162478,76.3121311 17.8436489,75.4045902 17.7710499,74.495082 L17.7710499,74.495082 Z" id="Shape" fill="#C2C1A7"></path>
                        <path d="M17.9881928,77.2216393 C18.1248881,77.0452459 18.3191394,76.8885246 18.3897762,76.6891803 C18.9424441,75.1140984 19.4663339,73.5298361 20.0150775,71.9534426 C20.0693632,71.7986885 20.227642,71.68 20.3381756,71.5442623 L20.0052668,75.1803279 C19.9163167,75.2832787 19.7874699,75.3731148 19.744957,75.4931148 C19.3688812,76.5514754 19.014389,77.6177049 18.6370052,78.6760656 C18.5591738,78.8944262 18.4100516,79.0872131 18.2936317,79.2911475 C18.1902926,79.1554098 18.0051979,79.0242623 17.9966954,78.882623 C17.9633391,78.3311475 17.9862306,77.7757377 17.9881928,77.2216393 L17.9881928,77.2216393 Z" id="Shape" fill="#CECDB7"></path>
                        <path d="M18.2929776,79.2911475 C18.4093976,79.0865574 18.5585198,78.8937705 18.6363511,78.6760656 C19.014389,77.6183607 19.3682272,76.5521311 19.7443029,75.4931148 C19.7868158,75.3731148 19.9163167,75.2839344 20.0046127,75.1803279 L20.0124613,77.5672131 L19.2158348,79.6157377 L18.2929776,79.2911475 L18.2929776,79.2911475 Z" id="Shape" fill="#DBDAC7"></path>
                        <path d="M19.2158348,79.6163934 L20.0124613,77.5678689 L20.1766265,79.9914754 L19.2158348,79.6163934 L19.2158348,79.6163934 Z" id="Shape" fill="#EBE9DC"></path>
                        <path d="M20.578864,70.7527869 C20.4506713,70.197377 20.6632358,69.757377 21.0478141,69.3777049 L21.2682272,69.5285246 L20.578864,70.7527869 L20.578864,70.7527869 Z" id="Shape" fill="#CECDB7"></path>
                        <path id="Shape" fill="#4FAA41" d="M18.5199312,60.4406557 L18.4767642,60.4334426 L18.4335972,60.44 L18.5349742,60.0734426 L18.5199312,60.4406557 L18.5199312,60.4406557 Z"></path>
                    </g>
                </g>
            </g>
            <g id="Angular_full_color_logo" sketch:type="MSLayerGroup" transform="translate(372.000000, 200.000000)">
                <g id="Layer_1" sketch:type="MSShapeGroup">
                    <g id="Group">
                        <path d="M28.2,0 L28.2,0 L28.2,0 L0.27,9.96 L4.53,46.89 L28.2,60 L28.2,60 L28.2,60 L51.87,46.89 L56.13,9.96 L28.2,0 Z" id="Shape" fill="#DD0031"></path>
                        <path d="M28.2,0 L28.2,6.66 L28.2,6.63 L28.2,37.02 L28.2,37.02 L28.2,60 L28.2,60 L51.87,46.89 L56.13,9.96 L28.2,0 L28.2,0 Z" id="Shape" fill="#C3002F"></path>
                        <path d="M28.2,6.63 L10.74,45.78 L10.74,45.78 L17.25,45.78 L17.25,45.78 L20.76,37.02 L35.58,37.02 L39.09,45.78 L39.09,45.78 L45.6,45.78 L45.6,45.78 L28.2,6.63 L28.2,6.63 L28.2,6.63 L28.2,6.63 L28.2,6.63 L28.2,6.63 Z M33.3,31.62 L23.1,31.62 L28.2,19.35 L33.3,31.62 L33.3,31.62 Z" id="Shape" fill="#FFFFFF"></path>
                    </g>
                </g>
            </g>
            <text id="Make-request" sketch:type="MSTextLayer" font-family="Helvetica Neue" font-size="18" font-weight="normal" fill="#0028FF">
                <tspan x="171" y="236">Make request</tspan>
            </text>
            <text id="Display-response" sketch:type="MSTextLayer" font-family="Helvetica Neue" font-size="18" font-weight="normal" fill="#0028FF">
                <tspan x="515" y="237">Display response</tspan>
            </text>
            <text id="Parse-request" sketch:type="MSTextLayer" font-family="Helvetica Neue" font-size="18" font-weight="normal" fill="#0028FF">
                <tspan x="170" y="404">Parse request</tspan>
            </text>
            <text id="Return-response" sketch:type="MSTextLayer" font-family="Helvetica Neue" font-size="18" font-weight="normal" fill="#0028FF">
                <tspan x="514" y="405">Return response</tspan>
            </text>
            <text id="Get-data" sketch:type="MSTextLayer" font-family="Helvetica Neue" font-size="18" font-weight="normal" fill="#0028FF">
                <tspan x="191" y="574">Get data</tspan>
            </text>
            <text id="Return-data" sketch:type="MSTextLayer" font-family="Helvetica Neue" font-size="18" font-weight="normal" fill="#0028FF">
                <tspan x="535" y="575">Return data</tspan>
            </text>
            <g id="node-+-express" sketch:type="MSLayerGroup" transform="translate(309.000000, 370.000000)">
                <g id="expressjs-icon" transform="translate(84.000000, 2.000000)" fill="#000000" sketch:type="MSShapeGroup">
                    <g id="Express">
                        <g id="original" transform="translate(0.770279, 0.679692)">
                            <path d="M96.2297214,54.703997 C92.7379769,55.5922477 90.5786086,54.7422836 88.641303,51.8324966 C84.2919371,45.316105 79.4907884,39.0983494 74.8581011,32.7657339 C74.260829,31.9463991 73.6405849,31.142379 72.8671942,30.1239535 C67.3845427,37.5209386 61.9095486,44.5656862 56.7714772,51.8937552 C54.933717,54.5125636 53.0040687,55.6535064 49.5735829,54.726969 L70.1871271,27.0610198 L50.9978471,2.07513762 C54.2981582,1.43192153 56.5800439,1.76118691 58.6015802,4.71691799 C63.0658061,11.2409669 67.9894721,17.4510651 72.8978235,24.021058 C77.8368042,17.4740371 82.6992115,11.2562816 87.2936122,4.79349133 C89.1390298,2.17468297 91.1222794,1.1792295 94.4379052,2.14405363 C91.9262995,5.4749941 89.4682951,8.75233322 86.9949761,12.0067003 C83.6563783,16.394353 80.3790392,20.8356069 76.917924,25.1313715 C75.6850932,26.6628384 75.8841839,27.6582919 76.9868401,29.1055281 C83.3883716,37.5209386 89.7133298,46.0205797 96.2297214,54.703997 L96.2297214,54.703997 Z" id="path4"></path>
                            <path d="M0.252692035,26.6015797 C0.804020112,23.837282 1.17157216,21.0193829 1.9373056,18.3086866 C6.53170624,1.89901893 25.3687489,-4.92366602 38.309644,5.24527406 C45.8904051,11.2103376 47.7741093,19.6180907 47.3988999,29.0978707 L4.67097398,29.0978707 C4.02775789,46.1048104 16.2718356,56.3732959 31.8774831,51.1356791 C37.3524772,49.2979189 40.576215,45.0098116 42.1919125,39.6496775 C43.0112473,36.9619531 44.3665955,36.5407998 46.8935159,37.3065332 C45.5994264,44.0143581 42.6666673,49.6195269 36.5407998,53.1265861 C27.3519985,58.3795175 14.2349846,56.6795892 7.33572636,49.3821495 C3.26202445,45.0940423 1.53146688,39.7568802 0.76573344,33.9909074 C0.650873424,33.0720273 0.413496058,32.1684618 0.229720032,31.257239 C0.245034701,29.7053526 0.252692035,28.1534661 0.252692035,26.6015797 L0.252692035,26.6015797 Z M4.74754733,25.4606369 L43.3634847,25.4606369 C43.1107927,13.1629578 35.4534583,4.42593928 24.9858821,4.34936594 C13.4998805,4.25747793 5.24527406,12.7877484 4.74754733,25.4606369 L4.74754733,25.4606369 Z" id="path6"></path>
                        </g>
                    </g>
                </g>
                <g id="Node.js_logo_2015" fill="#83CD29" sketch:type="MSShapeGroup">
                    <g id="svg3030">
                        <g id="layer1" transform="translate(0.032210, 0.333860)">
                            <path d="M26.5287173,0.497780769 C25.7375192,0.497780769 24.9682904,0.661396154 24.287775,1.04658462 L2.74727885,13.4861019 C1.35332308,14.2886712 0.506336538,15.8057077 0.506336538,17.4191885 L0.506336538,42.2525654 C0.506336538,43.8651692 1.35332308,45.3804462 2.74727885,46.1855077 L8.37250385,49.4326615 C11.1055385,50.7796385 12.1135096,50.7588577 13.3574596,50.7588577 C17.4039635,50.7588577 19.7144192,48.3035885 19.7144192,44.0361 L19.7144192,19.5229327 C19.7144192,19.1763808 19.4144077,18.9283212 19.07415,18.9283212 L16.375875,18.9283212 C16.030125,18.9283212 15.7356,19.1763808 15.7356,19.5229327 L15.7356,44.0361 C15.7356,45.9276404 13.7654019,47.8298654 10.5677135,46.2313096 L4.713825,42.8013692 C4.50710769,42.6886846 4.34795192,42.4897962 4.34795192,42.2525654 L4.34795192,17.4191885 C4.34795192,17.1834231 4.50527885,16.944 4.713825,16.8247269 L26.2085827,4.43086731 C26.4098077,4.31525192 26.64945,4.31525192 26.8488519,4.43086731 L48.3436096,16.8247269 C48.5484981,16.9476577 48.7094769,17.1762519 48.7094769,17.4191885 L48.7094769,42.2525654 C48.7094769,42.4897962 48.5904981,42.7327327 48.3893423,42.8470327 L26.8488519,55.2408923 C26.6640865,55.3506519 26.4098077,55.3506519 26.2085827,55.2408923 L20.6748231,51.948075 C20.5101808,51.8514865 20.285175,51.8588019 20.1260192,51.948075 C18.5985231,52.8140135 18.3113135,52.9146981 16.8789404,53.41155 C16.5258808,53.5344808 15.9898788,53.7257596 17.0618769,54.3262212 L24.287775,58.5793673 C24.9756058,58.9774269 25.7421,59.1738288 26.5287173,59.1738288 C27.3263077,59.1738288 28.0818288,58.9774269 28.7696596,58.5793673 L50.31015,46.1855077 C51.7041115,45.3747404 52.5510923,43.8651692 52.5510923,42.2525654 L52.5510923,17.4191885 C52.5510923,15.8057077 51.7041115,14.2920404 50.31015,13.4861019 L28.7696596,1.04658462 C28.0946308,0.661396154 27.3199154,0.497780769 26.5287173,0.497780769 L26.5287173,0.497780769 Z M32.2911404,18.2426827 C26.1573577,18.2426827 22.5041654,20.8530808 22.5041654,25.1941788 C22.5041654,29.9034923 26.1299192,31.1973462 32.0167385,31.7798077 C39.0597058,32.4692538 39.6085038,33.5033423 39.6085038,34.8896885 C39.6085038,37.2943212 37.6913538,38.3196288 33.1600788,38.3196288 C27.4671692,38.3196288 26.2158981,36.8984538 25.7969769,34.0664885 C25.74765,33.7628135 25.5134308,33.5176846 25.2024462,33.5176846 L22.4127,33.5176846 C22.0687846,33.5176846 21.7724308,33.81345 21.7724308,34.1579538 C21.7724308,37.782975 23.7444577,42.0699288 33.1600788,42.0699288 C39.9762058,42.0699288 43.9074577,39.3944077 43.9074577,34.7067577 C43.9074577,30.0596423 40.7317212,28.8123231 34.1204827,27.9381923 C27.439725,27.0542538 26.8031192,26.6216538 26.8031192,25.0570558 C26.8031192,23.7655385 27.3427731,22.0384962 32.2911404,22.0384962 C36.7108269,22.0384962 38.3444308,22.9916538 39.0139673,25.9717269 C39.0725077,26.2518346 39.3194712,26.4747173 39.6085038,26.4747173 L42.39825,26.4747173 C42.5702077,26.4747173 42.7366788,26.3693481 42.8555885,26.2459788 C42.9726635,26.1142673 43.0549846,25.9658712 43.0385192,25.7887904 C42.6067962,20.6565346 39.1840962,18.2426827 32.2911404,18.2426827 L32.2911404,18.2426827 Z" id="path28"></path>
                        </g>
                    </g>
                </g>
                <text id="+" sketch:type="MSTextLayer" font-family="Helvetica Neue" font-size="24" font-weight="bold" fill="#0028FF">
                    <tspan x="62" y="37">+</tspan>
                </text>
            </g>
            <text id="mongoose" sketch:type="MSTextLayer" font-family="Helvetica" font-size="36" font-weight="260" letter-spacing="-1.39999998" fill="#880000">
                <tspan x="321" y="580">mongoose</tspan>
            </text>
            <path d="M589,203 L589,123" id="Line" stroke="#0028FF" stroke-width="2" stroke-linecap="square" sketch:type="MSShapeGroup"></path>
            <path id="Line-decoration-1" d="M589,123 L586,133.8 L592,133.8 L589,123 Z" stroke="#0028FF" stroke-width="2" stroke-linecap="square"></path>
            <path d="M225,123 L225,203" id="Line-Copy-3" stroke="#0028FF" stroke-width="2" stroke-linecap="square" sketch:type="MSShapeGroup"></path>
            <path id="Line-Copy-3-decoration-1" d="M225,203 L228,192.2 L222,192.2 L225,203 Z" stroke="#0028FF" stroke-width="2" stroke-linecap="square"></path>
            <path d="M589,362 L589,282" id="Line-Copy" stroke="#0028FF" stroke-width="2" stroke-linecap="square" sketch:type="MSShapeGroup"></path>
            <path id="Line-Copy-decoration-1" d="M589,282 L586,292.8 L592,292.8 L589,282 Z" stroke="#0028FF" stroke-width="2" stroke-linecap="square"></path>
            <path d="M225,282 L225,362" id="Line-Copy-4" stroke="#0028FF" stroke-width="2" stroke-linecap="square" sketch:type="MSShapeGroup"></path>
            <path id="Line-Copy-4-decoration-1" d="M225,362 L228,351.2 L222,351.2 L225,362 Z" stroke="#0028FF" stroke-width="2" stroke-linecap="square"></path>
            <path d="M589,535 L589,455" id="Line-Copy-2" stroke="#0028FF" stroke-width="2" stroke-linecap="square" sketch:type="MSShapeGroup"></path>
            <path id="Line-Copy-2-decoration-1" d="M589,455 L586,465.8 L592,465.8 L589,455 Z" stroke="#0028FF" stroke-width="2" stroke-linecap="square"></path>
            <path d="M225,455 L225,535" id="Line-Copy-5" stroke="#0028FF" stroke-width="2" stroke-linecap="square" sketch:type="MSShapeGroup"></path>
            <path id="Line-Copy-5-decoration-1" d="M225,535 L228,524.2 L222,524.2 L225,535 Z" stroke="#0028FF" stroke-width="2" stroke-linecap="square"></path>
            <path d="M225,603 L225,683" id="Line-Copy-7" stroke="#0028FF" stroke-width="2" stroke-linecap="square" sketch:type="MSShapeGroup"></path>
            <path id="Line-Copy-7-decoration-1" d="M225,683 L228,672.2 L222,672.2 L225,683 Z" stroke="#0028FF" stroke-width="2" stroke-linecap="square"></path>
            <path d="M589,683 L589,603" id="Line-Copy-8" stroke="#0028FF" stroke-width="2" stroke-linecap="square" sketch:type="MSShapeGroup"></path>
            <path id="Line-Copy-8-decoration-1" d="M589,603 L586,613.8 L592,613.8 L589,603 Z" stroke="#0028FF" stroke-width="2" stroke-linecap="square"></path>
        </g>
    </g>
</svg>